<svg xmlns="http://www.w3.org/2000/svg" width="47.106" height="29.542" viewBox="0 0 47.106 29.542">
  <path id="motorbike" d="M44.65,14.557a8.761,8.761,0,0,0-2.606-1.384c.805-.189,1.637-.344,2.4-.453a1.528,1.528,0,0,0,1.238-1.984c-1-3.091-1.278-4.461-2.776-6.179L39.385.515A1.491,1.491,0,0,0,37.476.223L36.376.9a1.5,1.5,0,0,0-.593,1.859,4.964,4.964,0,0,1,.385,3.051l-.2-.6a1.927,1.927,0,0,0-.759-1L32.883,2.653a1.919,1.919,0,1,0-2.13,3.194l1.419.947c-.046-.005-.092-.01-.138-.014a17.049,17.049,0,0,0-6.274-2.7C22.8,3.353,19.993,2.664,16.4,7.357a16.454,16.454,0,0,1-6.064-2.114A2.692,2.692,0,0,0,7.289,5.23L5.926,3.963c-1.119-1.04-2.211-.882-3.748-.882A1.383,1.383,0,0,0,1.112,5.345l3,3.635a3.31,3.31,0,0,0,2.974,1.166l4.261,3.515a4,4,0,0,0,2.812.911l2.332-.147.6.888-2.8,1.335a7.989,7.989,0,1,0,1.61,5.941h.028l2.786,4a1.149,1.149,0,0,0,.942.492h4.66a.69.69,0,0,0,0-1.38H19.787l-2.645-3.8h3.686a3.284,3.284,0,0,0,5.76-1.595,10.351,10.351,0,0,0,5.291,1.385,35.94,35.94,0,0,0-.74,4.009H27.546a.69.69,0,1,0,0,1.38h3.8a1.148,1.148,0,0,0,1.14-1.013c0-.021.006-.043.008-.064a7.984,7.984,0,0,0,14.616-4.457A7.965,7.965,0,0,0,44.9,16.03a1.1,1.1,0,0,0-.245-1.473Zm-22.414.533.852-1.789a3.9,3.9,0,0,1,1.741-1.788c.564-.287,6.447-3.3,6.959-3.354a1.743,1.743,0,0,1,1.1.385A60.65,60.65,0,0,0,25.717,12.2a6.164,6.164,0,0,0-1.979,2.863,4.645,4.645,0,0,0-1.5.026Zm-5.794-3.2,2.334-.469,2.409,2.667-.9,1.88a4.844,4.844,0,0,0-.659.628l-3.188-4.706Zm17.971-2.5h0c2.864-1.2,3.8-3.572,2.928-6.39L39.2,5.75a2.739,2.739,0,0,0,2.008,1.194l1.761.173a13.134,13.134,0,0,1,.744,2.023c-1.526.142-2.622.91-2.622,1.9a1.4,1.4,0,0,0,.309.87,14.666,14.666,0,0,0-6.071,2.819,10.175,10.175,0,0,0-5.368-3.288c1.41-.7,3.029-1.453,4.45-2.045Zm3.932-7.969c4.032,4.626,3.47,3.975,3.666,4.215-.668-.065-1.244-.037-1.666-.66L38,1.519,38.2,1.4a.114.114,0,0,1,.146.022Zm5.907,9.933c-.262.037-.547.082-.848.133a1.512,1.512,0,0,1-.926-.454,2.259,2.259,0,0,1,1.678-.538l.216.666A.147.147,0,0,1,44.252,11.354Zm-6.82,6.261-.727-2.23a8.828,8.828,0,0,1,.938-.6l2.152,6.6a.539.539,0,1,1-1.026.334l-1.337-4.1Zm2.253-1.021L38.9,14.179l.142-.062a7.357,7.357,0,0,1,4.327,1.218ZM33.766,6.375a.687.687,0,0,0-.273-.36L31.518,4.7a.539.539,0,1,1,.6-.9l2.329,1.554a.541.541,0,0,1,.213.281l.549,1.683a4.491,4.491,0,0,1-.907.6l-.044-.042Zm-8.337-.952a14.365,14.365,0,0,1,4.8,1.868c-1.58.735-4.471,2.2-6.025,2.992a5.286,5.286,0,0,0-2.36,2.424l-.015.032L17.6,8.059c2.982-3.83,5.031-3.325,7.829-2.636ZM9.556,6.382a17.883,17.883,0,0,0,6.807,2.366l1.337,1.48-2.547.512A2.094,2.094,0,0,1,13.4,10.3L8.413,6.2a1.33,1.33,0,0,1,1.143.18ZM5.179,8.1l-3-3.633s0-.006,0-.006h0c1.527,0,2.132-.116,2.808.512A41.506,41.506,0,0,0,8.68,8.208l-1.591.538A1.924,1.924,0,0,1,5.179,8.1Zm7.049,4.5L8.676,9.666l1.26-.426,2.591,2.13a3.482,3.482,0,0,0,2.429.786l.639.943c-1.494.095-2.392.3-3.367-.5Zm-5.172,7.51a1.514,1.514,0,0,0,.726,2.878l3.692-.179a3.7,3.7,0,1,1-1.25-4.211Zm7.45,2.552a6.613,6.613,0,1,1-1.487-5.4l-1.44.688a5.083,5.083,0,1,0,1.354,4.787l1.573-.077ZM16.7,20.522a1.15,1.15,0,0,0-1.057.7l-7.926.385a.134.134,0,0,1-.064-.254l10.227-4.883.969,1.43a4.568,4.568,0,0,0-.2,2.622Zm3.379,0a3.146,3.146,0,0,1,3.376-4.1c-.017.174-.029.406-.029.591a1.146,1.146,0,0,0,.676,1.046l.008,0a1.9,1.9,0,1,1-2.291,2.873,1.143,1.143,0,0,0-.878-.412Zm6.288-2a3.305,3.305,0,0,0-1.558-1.658,4.826,4.826,0,0,1,.972-2.76,5.282,5.282,0,0,1,2.041-1.584,8.938,8.938,0,0,1,6.565,3.23,14.839,14.839,0,0,0-2.121,4.535,9,9,0,0,1-5.9-1.764Zm12.751,9.633a6.578,6.578,0,0,1-6.259-4.482c.441-2.3,1.285-5.414,2.74-7.233l.365,1.12a5.083,5.083,0,1,0,7.777,6.1.69.69,0,0,0-1.255-.575A3.7,3.7,0,1,1,36.431,19l1.025,3.145a1.92,1.92,0,1,0,3.65-1.19L40.14,17.99a3.7,3.7,0,0,1,2.49,2.383.69.69,0,1,0,1.309-.437A5.087,5.087,0,0,0,41.9,17.294l1.716-.587a6.618,6.618,0,0,1-4.5,11.448Zm0,0" transform="translate(-0.001 -0.001)" fill="#d31e1e"/>
</svg>
