<svg xmlns="http://www.w3.org/2000/svg" width="46" height="25.714" viewBox="0 0 46 25.714">
  <g id="couch" transform="translate(-2 -112.894)">
    <g id="Group_69707" data-name="Group 69707" transform="translate(2 112.894)">
      <path id="Path_2860" data-name="Path 2860" d="M43.72,119.932h-.914v-3.4a3.646,3.646,0,0,0-3.641-3.641h-13.2A3.639,3.639,0,0,0,23,114.429a3.638,3.638,0,0,0-2.968-1.535H11.741a.674.674,0,0,0,0,1.348h8.291a2.3,2.3,0,0,1,2.294,2.294v6.739l-.043-.04a4.406,4.406,0,0,0-2.974-1.174H8.085a2.311,2.311,0,0,0-1.527-2,2.239,2.239,0,0,0-.748-.127H4.541v-3.4a2.3,2.3,0,0,1,2.294-2.294H9.046a.674.674,0,0,0,0-1.348H6.835a3.646,3.646,0,0,0-3.641,3.641v3.4H2.28A2.282,2.282,0,0,0,0,122.212v7.036A4.753,4.753,0,0,0,4.748,134h.339l-.738,1.986a1.968,1.968,0,0,0,1.826,2.627H7.258a1.959,1.959,0,0,0,1.554-.773l2.9-3.84H34.284l2.9,3.84a1.959,1.959,0,0,0,1.554.773h1.084a1.967,1.967,0,0,0,1.826-2.627L40.914,134h.339A4.753,4.753,0,0,0,46,129.248v-7.036A2.282,2.282,0,0,0,43.72,119.932Zm-20.046-3.4a2.3,2.3,0,0,1,2.294-2.294h13.2a2.3,2.3,0,0,1,2.294,2.294v3.4H40.19a2.333,2.333,0,0,0-2.1,1.4,2.265,2.265,0,0,0-.172.729H26.691a4.42,4.42,0,0,0-3.017,1.214v-6.739ZM8.09,123.409H19.309a3.021,3.021,0,0,1,3.017,3.017v.958H8.09Zm-.353,13.614a.6.6,0,0,1-.479.238H6.174a.606.606,0,0,1-.563-.81L6.524,134h3.5Zm32.089.238H38.742a.6.6,0,0,1-.479-.238L35.973,134h3.5l.913,2.456A.606.606,0,0,1,39.826,137.261Zm1.426-4.613H4.748a3.4,3.4,0,0,1-3.4-3.4v-7.036a.933.933,0,0,1,.932-.932H5.81a.933.933,0,0,1,.932.932v5.846a.674.674,0,0,0,.674.674h24.75a.674.674,0,0,0,0-1.348H23.674v-.958a3.021,3.021,0,0,1,3.017-3.017H37.91v3.975H34.861a.674.674,0,0,0,0,1.348h3.723a.674.674,0,0,0,.674-.674v-5.846a.933.933,0,0,1,.932-.932h3.53a.933.933,0,0,1,.932.932v7.036h0A3.4,3.4,0,0,1,41.252,132.648Z" transform="translate(0 -112.894)" fill="#d31e1e"/>
    </g>
  </g>
</svg>
