<svg xmlns="http://www.w3.org/2000/svg" width="36.566" height="31.72" viewBox="0 0 36.566 31.72">
  <g id="van" transform="translate(0 -40.396)">
    <g id="Page-1_51_" transform="translate(0 40.396)">
      <g id="_x30_52---Removal-Service" transform="translate(0 0)">
        <path id="Shape_156_" d="M35.957,62.505V56.241a.613.613,0,0,0-.027-.179L33.757,49c-.008-.025-.02-.048-.029-.072h.4a1.219,1.219,0,0,0,1.219-1.219,4.881,4.881,0,0,0-4.876-4.876H26.815v-.609A1.828,1.828,0,0,0,24.987,40.4H2.438A1.828,1.828,0,0,0,.609,42.224v19.5a1.814,1.814,0,0,0,.141.7A1.219,1.219,0,0,0,0,63.555v1.828A1.219,1.219,0,0,0,1.219,66.6h1.87a4.875,4.875,0,1,0,9.667,0H25.029a4.876,4.876,0,1,0,9.667,0h.651a1.219,1.219,0,0,0,1.219-1.219V63.555a1.214,1.214,0,0,0-.609-1.049Zm-1.435-6.873h-4.66a.609.609,0,0,1-.609-.609V48.928H32.01a.609.609,0,0,1,.583.43ZM26.815,44.053h3.657a3.66,3.66,0,0,1,3.657,3.657H26.815Zm0,4.876h1.219v6.094a1.828,1.828,0,0,0,1.828,1.828h4.876v5.485H26.815Zm-24.987-6.7a.609.609,0,0,1,.609-.609H24.987a.609.609,0,0,1,.609.609V58.679H24.7l-.935-1.4V49.914a2.438,2.438,0,1,0-3.657,0v7.363l-.935,1.4h-.567l-.935-1.4V56.241h.093a1.114,1.114,0,0,0,.88-.427,1.146,1.146,0,0,0,.213-.985l-.775-3.2a1.126,1.126,0,0,0-1.093-.873H14.7a1.126,1.126,0,0,0-1.093.87l-.775,3.2a1.146,1.146,0,0,0,.211.989,1.114,1.114,0,0,0,.88.427h.1v1.036l-.935,1.4h-1.5V52.585a1.2,1.2,0,0,0-.169-.609,1.206,1.206,0,0,0,.169-.609V45.271a1.219,1.219,0,0,0-1.219-1.219H4.266a1.219,1.219,0,0,0-1.219,1.219v6.094a1.2,1.2,0,0,0,.169.609,1.206,1.206,0,0,0-.169.609v6.094H1.828ZM21.228,57.8a.613.613,0,0,0,.1-.338V50.67a2.189,2.189,0,0,0,1.219,0v6.79a.613.613,0,0,0,.1.338l.588.881h-2.6Zm-.507-9.48a1.219,1.219,0,1,1,1.219,1.219,1.219,1.219,0,0,1-1.219-1.219ZM16.557,57.8l.588.881h-2.6l.588-.881a.613.613,0,0,0,.1-.338V56.241h1.219V57.46A.613.613,0,0,0,16.557,57.8Zm-2.519-2.776.737-3.047h2.141l.763,3.047ZM6.7,55.632H7.923a1.219,1.219,0,0,0,1.219-1.219V52.585H10.36v6.094H4.266V52.585H5.485v1.828A1.219,1.219,0,0,0,6.7,55.632Zm0-1.219V52.585H7.923v1.828ZM4.266,51.366V45.271H5.485V47.1A1.219,1.219,0,0,0,6.7,48.319H7.923A1.219,1.219,0,0,0,9.142,47.1V45.271H10.36v6.094ZM6.7,47.1V45.272H7.923V47.1ZM1.828,59.9H25.6v2.438H2.438a.609.609,0,0,1-.609-.609V59.9Zm-.609,5.485V63.555h3.49a4.889,4.889,0,0,0-1.3,1.828Zm6.7,5.485a3.657,3.657,0,1,1,3.657-3.657A3.657,3.657,0,0,1,7.923,70.868Zm4.517-5.485a4.888,4.888,0,0,0-1.3-1.828H26.648a4.889,4.889,0,0,0-1.3,1.828Zm17.423,5.485a3.657,3.657,0,1,1,3.657-3.657A3.657,3.657,0,0,1,29.863,70.868Zm5.485-5.485h-.968a4.888,4.888,0,0,0-1.3-1.828h2.271Z" transform="translate(0 -40.396)" fill="#d31e1e"/>
        <path id="Shape_155_" d="M93.881,446.811a2.438,2.438,0,1,0,2.438,2.438A2.438,2.438,0,0,0,93.881,446.811Zm0,3.657a1.219,1.219,0,1,1,1.219-1.219A1.219,1.219,0,0,1,93.881,450.468Z" transform="translate(-85.958 -422.433)" fill="#d31e1e"/>
        <path id="Shape_154_" d="M459.655,446.811a2.438,2.438,0,1,0,2.438,2.438A2.438,2.438,0,0,0,459.655,446.811Zm0,3.657a1.219,1.219,0,1,1,1.219-1.219A1.219,1.219,0,0,1,459.655,450.468Z" transform="translate(-429.792 -422.433)" fill="#d31e1e"/>
      </g>
    </g>
  </g>
</svg>
