<svg xmlns="http://www.w3.org/2000/svg" width="39.343" height="32.648" viewBox="0 0 39.343 32.648">
  <g id="staple-removers" transform="translate(0 -39.387)">
    <path id="Path_2873" data-name="Path 2873" d="M38.587,57.935a1.505,1.505,0,0,0-.327-2.33l-25.8-15.247a1.491,1.491,0,0,0-1.484-.026,1.521,1.521,0,0,0-.308.222L8.69,39.387,1.8,51.055l1,.646a6.649,6.649,0,0,1,8.815-1.89l13.456,7.951a2.549,2.549,0,0,1,1.209,2.618,6.76,6.76,0,0,1-.323,1.139c-.047.1-.241.556-.312.678a2.543,2.543,0,0,1-2.195,1.27H7.9A6.766,6.766,0,0,1,3.564,61.93a6.633,6.633,0,0,1-2.376-4.576L0,57.4V70.955H2.292a1.506,1.506,0,0,0,1.48,1.08h29.9a1.543,1.543,0,0,0,1.312-.7,1.492,1.492,0,0,0,.194-1.137,5.767,5.767,0,0,0,2.859-5.743,5.835,5.835,0,0,0,.507-.726A5.774,5.774,0,0,0,38.587,57.935Zm-27.21-16.3a.309.309,0,0,1,.163-.263.323.323,0,0,1,.152-.039.307.307,0,0,1,.158.045l25.8,15.247a.314.314,0,0,1,0,.539,5.745,5.745,0,0,1-5.9.029L14.2,46.822A5.745,5.745,0,0,1,11.378,41.639Zm22.6,29.053a.309.309,0,0,1-.269.153H3.736a.314.314,0,0,1-.276-.463,5.745,5.745,0,0,1,5.066-3.026H28.919a5.745,5.745,0,0,1,5.066,3.026A.309.309,0,0,1,33.978,70.692Zm.64-1.548a6.932,6.932,0,0,0-5.7-2.978H8.525a6.933,6.933,0,0,0-6.083,3.6H1.19V61.01a7.849,7.849,0,0,0,6.626,3.647H23.445a3.749,3.749,0,0,0,3.227-1.865,3.713,3.713,0,0,0,1.377,1.436l2.591,1.531a5.733,5.733,0,0,0,2.925.8,5.815,5.815,0,0,0,3.314-1.04A4.584,4.584,0,0,1,34.618,69.144Zm2.9-6.023a4.579,4.579,0,0,1-6.272,1.613L28.654,63.2a2.548,2.548,0,0,1-1.207-2.619,3.745,3.745,0,0,0-1.776-3.847L12.215,48.786a7.849,7.849,0,0,0-7.56-.231l4.454-7.538,1.078.637a6.933,6.933,0,0,0,3.407,6.193L31.152,58.221a6.928,6.928,0,0,0,6.421.335A4.583,4.583,0,0,1,37.517,63.121Z" fill="#d31e1e"/>
    <path id="Path_2874" data-name="Path 2874" d="M371.451,290.784a1.859,1.859,0,1,0,1.859,1.859A1.861,1.861,0,0,0,371.451,290.784Zm0,2.528a.669.669,0,1,1,.669-.669A.67.67,0,0,1,371.451,293.312Z" transform="translate(-338.178 -230.029)" fill="#d31e1e"/>
  </g>
</svg>
