<svg xmlns="http://www.w3.org/2000/svg" xmlns:xlink="http://www.w3.org/1999/xlink" width="43.335" height="43.335" viewBox="0 0 43.335 43.335">
  <defs>
    <clipPath id="clip-path">
      <path id="path2061" d="M0-682.665H43.335v43.335H0Z" transform="translate(0 682.665)" fill="#d31e1e"/>
    </clipPath>
  </defs>
  <g id="g2059" clip-path="url(#clip-path)">
    <g id="g2065" transform="translate(0.635 27.664)">
      <path id="path2067" d="M-163.787-43.7h-9.621a1.481,1.481,0,0,1-1.481-1.481h0a1.481,1.481,0,0,1,1.481-1.481h39.1a1.481,1.481,0,0,1,1.481,1.481h0A1.481,1.481,0,0,1-134.3-43.7h-26.52" transform="translate(174.889 46.667)" fill="none" stroke="#d31e1e" stroke-linecap="round" stroke-linejoin="round" stroke-miterlimit="10" stroke-width="1.25"/>
    </g>
    <g id="g2069" transform="translate(5.375 25.125)">
      <path id="path2071" d="M-68.678-37.461V-40h-3.809a.846.846,0,0,0-.846.846v1.693" transform="translate(73.333 40)" fill="none" stroke="#d31e1e" stroke-linecap="round" stroke-linejoin="round" stroke-miterlimit="10" stroke-width="1.25"/>
    </g>
    <g id="g2073" transform="translate(10.03 25.125)">
      <path id="path2075" d="M-68.678-37.461V-40h-4.655v2.539" transform="translate(73.333 40)" fill="none" stroke="#d31e1e" stroke-linecap="round" stroke-linejoin="round" stroke-miterlimit="10" stroke-width="1.25"/>
    </g>
    <g id="g2077" transform="translate(14.685 25.125)">
      <path id="path2079" d="M-68.678-37.461V-40h-4.655v2.539" transform="translate(73.333 40)" fill="none" stroke="#d31e1e" stroke-linecap="round" stroke-linejoin="round" stroke-miterlimit="10" stroke-width="1.25"/>
    </g>
    <g id="g2081" transform="translate(19.34 25.125)">
      <path id="path2083" d="M-68.678-37.461V-40h-4.655v2.539" transform="translate(73.333 40)" fill="none" stroke="#d31e1e" stroke-linecap="round" stroke-linejoin="round" stroke-miterlimit="10" stroke-width="1.25"/>
    </g>
    <g id="g2085" transform="translate(23.995 25.125)">
      <path id="path2087" d="M-68.678-37.461V-40h-4.655v2.539" transform="translate(73.333 40)" fill="none" stroke="#d31e1e" stroke-linecap="round" stroke-linejoin="round" stroke-miterlimit="10" stroke-width="1.25"/>
    </g>
    <g id="g2089" transform="translate(28.65 25.125)">
      <path id="path2091" d="M-68.678-37.461V-40h-4.655v2.539" transform="translate(73.333 40)" fill="none" stroke="#d31e1e" stroke-linecap="round" stroke-linejoin="round" stroke-miterlimit="10" stroke-width="1.25"/>
    </g>
    <g id="g2093" transform="translate(33.305 25.125)">
      <path id="path2095" d="M-68.678-37.461v-1.693A.846.846,0,0,0-69.524-40h-3.809v2.539" transform="translate(73.333 40)" fill="none" stroke="#d31e1e" stroke-linecap="round" stroke-linejoin="round" stroke-miterlimit="10" stroke-width="1.25"/>
    </g>
    <g id="g2097" transform="translate(1.947 20.47)">
      <path id="path2099" d="M-583.139-24.975V-25.4a1.27,1.27,0,0,0-1.27-1.27h-38.256v7.194" transform="translate(622.665 26.668)" fill="none" stroke="#d31e1e" stroke-linecap="round" stroke-linejoin="round" stroke-miterlimit="10" stroke-width="1.25"/>
    </g>
    <g id="g2101" transform="translate(41.473 25.125)">
      <path id="path2103" d="M0-37.46V-40" transform="translate(0 39.999)" fill="none" stroke="#d31e1e" stroke-linecap="round" stroke-linejoin="round" stroke-miterlimit="10" stroke-width="1.25"/>
    </g>
    <g id="g2105" transform="translate(1.947 3.144)">
      <path id="path2107" d="M-493.839-1.655l-32.184,13.662a2.116,2.116,0,0,0-1.289,1.948v1.6L-491.918.582a.423.423,0,0,0,.238-.518l-.272-.853A1.4,1.4,0,0,0-493.839-1.655Z" transform="translate(527.312 1.768)" fill="none" stroke="#d31e1e" stroke-linecap="round" stroke-linejoin="round" stroke-miterlimit="10" stroke-width="1.25"/>
    </g>
    <g id="g2109" transform="translate(5.882 30.627)">
      <path id="path2111" d="M-53.694,0l-.761,8.595a1.063,1.063,0,0,1-1.059.97h0a1.063,1.063,0,0,1-1.059-.97L-57.333,0" transform="translate(57.333)" fill="none" stroke="#d31e1e" stroke-linecap="round" stroke-linejoin="round" stroke-miterlimit="10" stroke-width="1.25"/>
    </g>
    <g id="g2113" transform="translate(33.813 30.627)">
      <path id="path2115" d="M-53.694,0l-.761,8.595a1.063,1.063,0,0,1-1.059.97,1.063,1.063,0,0,1-1.059-.97L-57.333,0" transform="translate(57.333)" fill="none" stroke="#d31e1e" stroke-linecap="round" stroke-linejoin="round" stroke-miterlimit="10" stroke-width="1.25"/>
    </g>
    <g id="g2117" transform="translate(32.465 7.557)">
      <path id="path2119" d="M-102.506-190.515l-6.948-12.913" transform="translate(109.454 203.429)" fill="none" stroke="#d31e1e" stroke-linecap="round" stroke-linejoin="round" stroke-miterlimit="10" stroke-width="1.25"/>
    </g>
    <g id="g2121" transform="translate(14.685 17.931)">
      <path id="path2123" d="M-206.034-37.461l-.653-1.96a.846.846,0,0,0-.8-.579h-11.052a.846.846,0,0,0-.8.579l-.653,1.96" transform="translate(219.999 40)" fill="none" stroke="#d31e1e" stroke-linecap="round" stroke-linejoin="round" stroke-miterlimit="10" stroke-width="1.25"/>
    </g>
  </g>
</svg>
