<svg xmlns="http://www.w3.org/2000/svg" width="33.198" height="33.198" viewBox="0 0 33.198 33.198">
  <g id="Quote_request" transform="translate(-19 -19)">
    <g id="Quote_Request-2" data-name="Quote_Request" transform="translate(20 20)">
      <path id="Path_4886" data-name="Path 4886" d="M234.4,247.911l-3.1.621.621-3.1a5.288,5.288,0,0,1,1.446-2.7L244.792,231.3l3.739,3.739L237.1,246.465A5.288,5.288,0,0,1,234.4,247.911Z" transform="translate(-217.333 -217.334)" fill="none" stroke="#d31e1e" stroke-linecap="round" stroke-linejoin="round" stroke-miterlimit="10" stroke-width="2"/>
      <line id="Line_12" data-name="Line 12" y1="2.221" transform="translate(23.795 7.932)" fill="none" stroke="#d31e1e" stroke-linecap="round" stroke-linejoin="round" stroke-miterlimit="10" stroke-width="2"/>
      <path id="Path_4887" data-name="Path 4887" d="M35.863,20H22.644A2.644,2.644,0,0,0,20,22.644v25.91A2.644,2.644,0,0,0,22.644,51.2h5.931" transform="translate(-20 -20)" fill="none" stroke="#d31e1e" stroke-linecap="round" stroke-linejoin="round" stroke-miterlimit="10" stroke-width="2"/>
      <path id="Path_4888" data-name="Path 4888" d="M267.932,27.932h-5.288A2.644,2.644,0,0,1,260,25.288V20Z" transform="translate(-244.137 -20)" fill="none" stroke="#d31e1e" stroke-linecap="round" stroke-linejoin="round" stroke-miterlimit="10" stroke-width="2"/>
    </g>
    <line id="Line_13" data-name="Line 13" x2="11.905" transform="translate(25.952 33.393)" fill="none" stroke="#d31e1e" stroke-linecap="round" stroke-linejoin="round" stroke-miterlimit="10" stroke-width="2"/>
    <line id="Line_14" data-name="Line 14" x2="10.682" transform="translate(25.288 37.979)" fill="none" stroke="#d31e1e" stroke-linecap="round" stroke-linejoin="round" stroke-miterlimit="10" stroke-width="2"/>
    <line id="Line_15" data-name="Line 15" x2="5.682" transform="translate(25.288 43.266)" fill="none" stroke="#d31e1e" stroke-linecap="round" stroke-linejoin="round" stroke-miterlimit="10" stroke-width="2"/>
  </g>
</svg>
