<svg xmlns="http://www.w3.org/2000/svg" width="28.621" height="32.604" viewBox="0 0 28.621 32.604">
  <g id="Layer_x0020_1" transform="translate(-2.648)">
    <g id="_215427440" transform="translate(2.648 0)">
      <path id="_215428328" d="M21.04,17.061H19.4a3.6,3.6,0,0,1-3.6-3.6V10.223a.356.356,0,1,1,.712,0v3.241A2.888,2.888,0,0,0,19.4,16.349H21.04a2.888,2.888,0,0,0,2.885-2.885V10.223a.356.356,0,1,1,.712,0v3.241a3.6,3.6,0,0,1-3.6,3.6Z" transform="translate(-5.908 -2.446)" fill="#d31e1e" fill-rule="evenodd"/>
      <path id="_215428208" d="M25.1,7.227a.356.356,0,0,1-.356-.356V5.64a4.928,4.928,0,0,0-9.857,0V6.871a.356.356,0,0,1-.712,0V5.64a5.64,5.64,0,0,1,11.28,0V6.871a.356.356,0,0,1-.356.356Z" transform="translate(-5.505 0)" fill="#d31e1e" fill-rule="evenodd"/>
      <path id="_215428088" d="M27.315,11.959a.743.743,0,0,0,.466.177c.533,0,.982-.655.982-1.429a1.485,1.485,0,0,0-.693-1.364.764.764,0,0,0-.6.047.687.687,0,0,0-.153.515Zm.466.888a1.5,1.5,0,0,1-1.079-.486.356.356,0,0,1-.1-.247V9.908a1.287,1.287,0,0,1,.417-1.072,1.41,1.41,0,0,1,1.238-.18.32.32,0,0,1,.058.019,2.15,2.15,0,0,1,1.159,2.032,1.959,1.959,0,0,1-1.694,2.141Z" transform="translate(-8.586 -2.131)" fill="#d31e1e" fill-rule="evenodd"/>
      <path id="_215428016" d="M16.156,9.591a.373.373,0,0,1-.085-.01.357.357,0,0,1-.261-.431,4.956,4.956,0,0,0,.1-.807,2.051,2.051,0,0,1,.461-1.464,1.018,1.018,0,0,1,.783-.212,17.909,17.909,0,0,0,4.869-.739A.961.961,0,0,1,22.779,6c1.024.529,1.761,2.867,1.842,3.132a.356.356,0,1,1-.681.208c-.271-.89-.916-2.412-1.488-2.707a.247.247,0,0,0-.205-.028,18.53,18.53,0,0,1-5.16.772.354.354,0,0,0-.257.046c-.152.129-.184.577-.211.972a5.537,5.537,0,0,1-.119.926.355.355,0,0,1-.345.271Z" transform="translate(-5.908 -1.458)" fill="#d31e1e" fill-rule="evenodd"/>
      <path id="_215427680" d="M14.332,9.343a1.484,1.484,0,0,0-.693,1.364c0,.774.449,1.429.982,1.429a.742.742,0,0,0,.466-.176V9.908a.684.684,0,0,0-.153-.518A.762.762,0,0,0,14.332,9.343Zm.289,3.5a1.959,1.959,0,0,1-1.694-2.141,2.15,2.15,0,0,1,1.158-2.032.322.322,0,0,1,.059-.019,1.408,1.408,0,0,1,1.238.181A1.289,1.289,0,0,1,15.8,9.911v2.2a.356.356,0,0,1-.1.247,1.5,1.5,0,0,1-1.078.486Z" transform="translate(-5.196 -2.131)" fill="#d31e1e" fill-rule="evenodd"/>
      <path id="_215427968" d="M28.392,28.894a.356.356,0,0,1-.356-.356V27.494a6.088,6.088,0,0,0-5.517-6.046c.75,2.778-2.746,5.107-2.9,5.211a.355.355,0,0,1-.55-.317,3.514,3.514,0,0,0-.868-2.3,3.511,3.511,0,0,0-.868,2.3.356.356,0,0,1-.551.317c-.158-.1-3.654-2.433-2.9-5.211a6.088,6.088,0,0,0-5.516,6.046v1.044a.356.356,0,1,1-.712,0V27.494A6.8,6.8,0,0,1,14.39,20.71h0a.356.356,0,0,1,.323.506c-.871,1.869.99,3.69,1.941,4.461a4.694,4.694,0,0,1,1.3-2.425.355.355,0,0,1,.489,0,4.7,4.7,0,0,1,1.3,2.424c.95-.773,2.81-2.6,1.941-4.46A.356.356,0,0,1,22,20.71a6.8,6.8,0,0,1,6.744,6.783v1.044a.356.356,0,0,1-.356.356Z" transform="translate(-3.887 -5.134)" fill="#d31e1e" fill-rule="evenodd"/>
      <path id="_215427872" d="M17.019,20.341a2.5,2.5,0,0,0-.505,1.7,5.434,5.434,0,0,0,2.161,3.24,4.475,4.475,0,0,1,.937-2.023,4.1,4.1,0,0,1-2.593-2.921Zm1.974,5.982a.353.353,0,0,1-.2-.059c-.113-.074-2.79-1.852-2.993-4.156a3.48,3.48,0,0,1,1.258-2.888.356.356,0,0,1,.6.3s0,.039,0,.1c-.008.517.162,2.274,2.678,3.163a.357.357,0,0,1,.125.595,3.756,3.756,0,0,0-1.111,2.57.357.357,0,0,1-.178.329.353.353,0,0,1-.178.047Z" transform="translate(-5.906 -4.74)" fill="#d31e1e" fill-rule="evenodd"/>
      <path id="_215427848" d="M22.162,23.262a4.486,4.486,0,0,1,.937,2.022,5.441,5.441,0,0,0,2.16-3.24,2.5,2.5,0,0,0-.5-1.7A4.1,4.1,0,0,1,22.162,23.262Zm.618,3.061a.355.355,0,0,1-.355-.376,3.729,3.729,0,0,0-1.112-2.57.356.356,0,0,1,.126-.595c2.516-.889,2.686-2.646,2.678-3.164,0-.063-.005-.1-.005-.1a.359.359,0,0,1,.2-.358.355.355,0,0,1,.4.059,3.479,3.479,0,0,1,1.258,2.888c-.2,2.3-2.879,4.082-2.993,4.156A.351.351,0,0,1,22.78,26.323Z" transform="translate(-7.247 -4.74)" fill="#d31e1e" fill-rule="evenodd"/>
      <path id="_215427800" d="M25.433,19.555a.356.356,0,0,1-.356-.356v-1.39a.356.356,0,1,1,.712,0V19.2A.355.355,0,0,1,25.433,19.555Z" transform="translate(-8.208 -4.326)" fill="#d31e1e" fill-rule="evenodd"/>
      <path id="_215427032" d="M17.69,19.555a.356.356,0,0,1-.356-.356v-1.39a.356.356,0,1,1,.712,0V19.2A.356.356,0,0,1,17.69,19.555Z" transform="translate(-6.288 -4.326)" fill="#d31e1e" fill-rule="evenodd"/>
      <path id="_215427560" d="M8.232,35.542l1.018.737a.355.355,0,0,1,.13.4l-.391,1.195L10,37.132a.356.356,0,0,1,.419,0l1.016.741-.391-1.195a.355.355,0,0,1,.13-.4l1.018-.737-1.257,0h0A.357.357,0,0,1,10.6,35.3l-.385-1.2-.386,1.2a.357.357,0,0,1-.339.247h0Zm3.889,3.625a.356.356,0,0,1-.21-.069l-1.7-1.238L8.518,39.1a.356.356,0,0,1-.549-.4l.653-2-1.7-1.232a.356.356,0,0,1,.209-.644h0l2.1,0,.645-2a.356.356,0,0,1,.339-.247h0a.356.356,0,0,1,.338.247l.645,2,2.1,0h0a.356.356,0,0,1,.209.644l-1.7,1.232.653,2a.356.356,0,0,1-.339.467Z" transform="translate(-3.671 -8.078)" fill="#d31e1e" fill-rule="evenodd"/>
      <path id="_215427152" d="M18.558,35.542l1.018.737a.356.356,0,0,1,.13.4l-.391,1.195,1.016-.741a.357.357,0,0,1,.42,0l1.015.741-.391-1.195a.356.356,0,0,1,.13-.4l1.018-.737-1.257,0h0a.357.357,0,0,1-.339-.247l-.386-1.2-.386,1.2a.357.357,0,0,1-.339.247h0Zm3.889,3.625a.352.352,0,0,1-.21-.069l-1.7-1.238-1.7,1.237a.356.356,0,0,1-.548-.4l.653-2-1.7-1.232a.356.356,0,0,1,.208-.644h0l2.1,0,.645-2a.356.356,0,0,1,.678,0l.644,2,2.1,0h0a.356.356,0,0,1,.209.644l-1.7,1.232.653,2a.356.356,0,0,1-.338.467Z" transform="translate(-6.23 -8.078)" fill="#d31e1e" fill-rule="evenodd"/>
      <path id="_215427344" d="M30.867,37.064a.359.359,0,0,1,.21.068l1.015.741L31.7,36.678a.356.356,0,0,1,.13-.4l1.018-.737-1.257,0h0a.356.356,0,0,1-.338-.247l-.386-1.2-.386,1.2a.356.356,0,0,1-.339.247h0l-1.257,0,1.018.737a.356.356,0,0,1,.13.4l-.391,1.195,1.016-.741A.356.356,0,0,1,30.867,37.064Zm-1.906,2.1a.356.356,0,0,1-.338-.467l.653-2-1.7-1.232a.356.356,0,0,1,.208-.644h0l2.1,0,.645-2a.356.356,0,0,1,.678,0l.645,2,2.1,0h0a.356.356,0,0,1,.208.644l-1.7,1.232.653,2a.356.356,0,0,1-.548.4l-1.7-1.238L29.17,39.1A.354.354,0,0,1,28.96,39.167Z" transform="translate(-8.79 -8.078)" fill="#d31e1e" fill-rule="evenodd"/>
      <path id="_215427392" d="M7.452,31.285a4.093,4.093,0,0,0,0,8.185H26.464a4.093,4.093,0,1,0,0-8.185Zm19.011,8.9H7.452a4.8,4.8,0,0,1,0-9.609H26.464a4.8,4.8,0,1,1,0,9.609Z" transform="translate(-2.648 -7.579)" fill="#d31e1e" fill-rule="evenodd"/>
    </g>
  </g>
</svg>
