<svg xmlns="http://www.w3.org/2000/svg" width="32.316" height="31.245" viewBox="0 0 32.316 31.245">
  <g id="strut-mounting" transform="translate(-3.988 -4.91)">
    <path id="Path_2866" data-name="Path 2866" d="M27.991,37.368a5.48,5.48,0,1,0-5.48-5.48,5.486,5.486,0,0,0,5.48,5.48Zm0-9.807a4.326,4.326,0,1,1-4.326,4.326,4.331,4.331,0,0,1,4.326-4.326Z" transform="translate(-7.838 -9.109)" fill="#d31e1e"/>
    <path id="Path_2867" data-name="Path 2867" d="M18.264,29.269a.577.577,0,0,0-.577.577,8.261,8.261,0,1,0,16.523,0c-.132-9.081-12.493-11.455-15.938-3.044a.577.577,0,0,0,1.073.424,7.1,7.1,0,1,1-.5,2.618.577.577,0,0,0-.577-.577Z" transform="translate(-5.797 -7.067)" fill="#d31e1e"/>
    <path id="Path_2868" data-name="Path 2868" d="M32.506,12.329a1.858,1.858,0,0,0-3.716,0A1.858,1.858,0,0,0,32.506,12.329Zm-2.562,0a.7.7,0,0,1,1.408,0A.7.7,0,0,1,29.944,12.329Z" transform="translate(-10.495 -2.36)" fill="#d31e1e"/>
    <path id="Path_2869" data-name="Path 2869" d="M11.907,43.832a1.858,1.858,0,0,0-.961,3.589A1.858,1.858,0,0,0,11.907,43.832Zm.2,1.977a.7.7,0,0,1-1.36-.365A.7.7,0,0,1,12.107,45.809Z" transform="translate(-2.367 -16.443)" fill="#d31e1e"/>
    <path id="Path_2870" data-name="Path 2870" d="M35.166,39a12.293,12.293,0,0,1-13.385,1.515.577.577,0,0,0-.524,1.028,13.453,13.453,0,0,0,14.287-1.366,5.06,5.06,0,1,0,5.407-8.543q-.177-.1-.364-.189a12.793,12.793,0,0,0,.129-1.832A13.2,13.2,0,0,0,37.8,21.266a.577.577,0,0,0-.9.722A12.133,12.133,0,0,1,39.376,31.7c-.12.622.616.689,1,.935A3.906,3.906,0,0,1,36.47,39.4c-.415-.211-.821-.8-1.3-.4Z" transform="translate(-7.175 -6.829)" fill="#d31e1e"/>
    <path id="Path_2871" data-name="Path 2871" d="M8.815,34.231a5,5,0,0,0,2.772-.665c.454-.268,1.27-.73.8-1.331a.576.576,0,0,0-.813-.063,3.913,3.913,0,0,1-6.28-4,3.857,3.857,0,0,1,2.439-2.657.577.577,0,0,0,.376-.65,11.381,11.381,0,0,1-.186-2.086,12.279,12.279,0,0,1,8.02-11.492c.584-.214.288-.852.309-1.32a3.905,3.905,0,1,1,7.81,0c.027.466-.279,1.105.309,1.32a12.034,12.034,0,0,1,3.4,1.921.577.577,0,0,0,.723-.9,13.164,13.164,0,0,0-3.3-1.938,5.059,5.059,0,1,0-10.1-.4c0,.136.005.271.016.4A13.441,13.441,0,0,0,6.765,22.781a12.79,12.79,0,0,0,.129,1.832q-.188.087-.365.189a5.018,5.018,0,0,0-2.354,3.074,5.078,5.078,0,0,0,4.64,6.354Z" transform="translate(0 0)" fill="#d31e1e"/>
    <path id="Path_2872" data-name="Path 2872" d="M48.95,47.229a1.858,1.858,0,0,0,1.858-3.218,1.858,1.858,0,0,0-1.858,3.218Zm.319-1.961a.7.7,0,0,1,1.22.7A.7.7,0,0,1,49.269,45.268Z" transform="translate(-18.633 -16.436)" fill="#d31e1e"/>
  </g>
</svg>
