<?xml version="1.0" standalone="no"?>
<!DOCTYPE svg PUBLIC "-//W3C//DTD SVG 20010904//EN"
 "http://www.w3.org/TR/2001/REC-SVG-20010904/DTD/svg10.dtd">
<svg version="1.0" xmlns="http://www.w3.org/2000/svg"
 width="128.000000pt" height="128.000000pt" viewBox="0 0 128.000000 128.000000"
 preserveAspectRatio="xMidYMid meet">
<metadata>
Created by potrace 1.10, written by Peter Selinger 2001-2011
</metadata>
<g transform="translate(0.000000,128.000000) scale(0.100000,-0.100000)"
fill="#000000" stroke="none">
<path d="M963 1231 c-10 -11 -31 -45 -47 -75 -25 -46 -27 -57 -17 -70 23 -28
38 -18 81 56 32 52 40 75 33 87 -15 23 -30 24 -50 2z"/>
<path d="M568 1169 c-9 -5 -45 -64 -80 -131 -84 -162 -136 -218 -284 -304 -63
-36 -127 -82 -143 -101 -90 -110 -55 -279 72 -345 43 -22 119 -29 167 -16 23
6 29 0 84 -98 33 -57 69 -110 80 -117 56 -36 123 -25 164 28 38 48 30 92 -38
208 l-60 102 29 12 c56 23 155 32 290 26 l136 -6 28 28 c41 42 36 83 -19 180
-36 62 -43 83 -35 95 58 79 67 138 31 198 -32 53 -75 74 -143 69 l-59 -3 -45
78 c-25 43 -54 85 -66 93 -24 17 -83 19 -109 4z m80 -61 c36 -45 332 -576 330
-593 -3 -19 -10 -20 -183 -20 -162 -1 -186 -3 -235 -23 -30 -12 -57 -18 -61
-14 -4 4 -43 68 -87 143 l-79 136 50 43 c55 48 122 145 162 236 14 32 33 69
41 82 16 24 46 29 62 10z m273 -197 c17 -17 29 -40 29 -55 0 -28 -19 -76 -30
-76 -6 0 -59 83 -97 153 -2 4 12 7 32 7 27 0 44 -8 66 -29z m-562 -340 c45
-77 81 -144 81 -148 0 -12 -138 -89 -173 -97 -73 -17 -178 52 -192 127 -17 88
15 140 130 212 39 23 71 43 71 44 1 1 38 -62 83 -138z m231 -417 c0 -40 -38
-68 -76 -53 -19 6 -129 180 -129 202 0 4 20 21 45 36 l45 28 57 -96 c32 -53
57 -105 58 -117z"/>
<path d="M1095 1023 c-79 -48 -89 -64 -54 -86 12 -7 35 1 88 32 59 35 72 47
69 64 -5 33 -36 30 -103 -10z"/>
<path d="M1092 798 c-16 -16 -15 -35 2 -45 8 -4 49 -7 91 -5 80 4 100 17 75
47 -16 19 -150 21 -168 3z"/>
</g>
</svg>
