<?xml version="1.0" encoding="UTF-8"?>
<svg xmlns="http://www.w3.org/2000/svg" xmlns:xlink="http://www.w3.org/1999/xlink" width="226px" height="226px" viewBox="0 0 226 226" version="1.1">
<g id="surface1">
<path style=" stroke:none;fill-rule:nonzero;fill:rgb(0%,0%,0%);fill-opacity:1;" d="M 65.859375 2.472656 C 27.898438 11.652344 0 47.496094 0 87.046875 C 0 97.816406 3.882812 113.707031 8.652344 123.417969 L 12.183594 130.125 L 6.355469 150.609375 C 2.648438 163.496094 1.234375 171.265625 2.472656 171.265625 C 3.53125 171.265625 12.890625 168.792969 23.484375 165.96875 L 42.375 160.671875 L 49.613281 164.378906 C 53.675781 166.320312 62.503906 169.148438 69.390625 170.558594 C 76.453125 172.148438 82.101562 173.382812 82.101562 173.5625 C 82.277344 173.738281 84.574219 178.679688 87.398438 184.507812 C 93.578125 197.21875 107.351562 211.699219 119.355469 217.703125 C 138.953125 227.414062 162.789062 228.472656 180.800781 220.171875 L 190.335938 215.757812 L 206.402344 220.351562 C 215.230469 222.820312 223 224.234375 223.703125 223.703125 C 224.234375 223 222.820312 215.230469 220.351562 206.402344 L 215.757812 190.335938 L 220.171875 180.800781 C 228.472656 162.789062 227.414062 138.953125 217.703125 119.355469 C 211.699219 107.351562 197.21875 93.578125 184.507812 87.398438 C 178.679688 84.574219 173.738281 82.277344 173.5625 82.101562 C 173.382812 82.101562 171.972656 76.273438 170.558594 69.210938 C 160.671875 21.71875 112.648438 -8.828125 65.859375 2.472656 Z M 116.882812 20.128906 C 132.421875 27.542969 143.722656 38.667969 151.3125 54.382812 C 157.847656 67.269531 158.023438 68.507812 158.023438 86.515625 C 158.023438 104.171875 157.671875 105.761719 152.019531 117.414062 C 144.25 132.953125 132.953125 144.25 117.414062 152.019531 C 105.761719 157.671875 104.171875 158.023438 86.515625 158.023438 C 69.210938 158.023438 67.09375 157.671875 55.617188 152.195312 L 43.257812 146.546875 L 31.429688 149.902344 C 24.71875 151.84375 19.421875 153.257812 19.421875 153.078125 C 19.421875 152.902344 21.011719 147.429688 22.777344 140.898438 L 26.308594 128.890625 L 20.65625 117.945312 C 15.359375 107.351562 15.007812 105.761719 15.007812 86.515625 C 15.007812 68.152344 15.539062 65.152344 19.773438 56.148438 C 25.425781 44.140625 36.019531 32.3125 47.847656 24.542969 C 61.265625 16.066406 69.210938 14.125 89.164062 14.65625 C 104.171875 15.183594 108.410156 15.890625 116.882812 20.128906 Z M 181.507812 100.464844 C 189.980469 104.878906 201.632812 117.0625 206.753906 127.125 C 210.285156 133.835938 210.992188 137.71875 210.992188 152.726562 C 210.992188 168.617188 210.460938 171.441406 206.226562 179.5625 C 201.8125 188.390625 201.632812 189.097656 204.105469 197.042969 C 205.519531 201.632812 206.402344 205.695312 206.046875 206.046875 C 205.695312 206.402344 201.632812 205.519531 197.042969 204.105469 C 189.097656 201.632812 188.390625 201.8125 179.5625 206.226562 C 171.441406 210.460938 168.617188 210.992188 152.726562 210.992188 C 137.011719 210.992188 134.011719 210.460938 126.242188 206.226562 C 114.058594 199.867188 97.109375 180.800781 97.109375 173.5625 C 97.109375 172.679688 101.347656 171.089844 106.46875 169.851562 C 121.828125 166.320312 134.363281 159.082031 146.722656 146.722656 C 159.082031 134.363281 166.320312 121.828125 169.851562 106.289062 C 171.089844 101.347656 172.679688 97.109375 173.5625 97.109375 C 174.265625 97.109375 177.796875 98.699219 181.507812 100.464844 Z M 181.507812 100.464844 "/>
<path style=" stroke:none;fill-rule:nonzero;fill:rgb(0%,0%,0%);fill-opacity:1;" d="M 72.742188 44.140625 C 66.210938 48.203125 60.03125 57.382812 60.03125 63.03125 C 60.03125 66.386719 60.914062 67.09375 66.035156 67.09375 C 70.976562 67.09375 72.390625 66.210938 74.15625 61.796875 C 78.039062 52.261719 88.457031 49.96875 94.992188 57.03125 C 101.699219 64.09375 100.109375 70.449219 89.164062 81.21875 C 80.335938 89.871094 79.453125 91.460938 79.453125 98.34375 L 79.453125 105.9375 L 86.515625 105.9375 C 92.871094 105.9375 93.578125 105.585938 93.578125 101.347656 C 93.578125 98.34375 96.578125 93.578125 102.230469 87.222656 C 111.410156 77.15625 114.058594 70.449219 112.292969 60.914062 C 109.117188 43.964844 87.929688 34.960938 72.742188 44.140625 Z M 72.742188 44.140625 "/>
<path style=" stroke:none;fill-rule:nonzero;fill:rgb(0%,0%,0%);fill-opacity:1;" d="M 79.453125 126.242188 C 79.453125 132.246094 79.628906 132.421875 86.515625 132.421875 C 93.402344 132.421875 93.578125 132.246094 93.578125 126.242188 C 93.578125 120.238281 93.402344 120.0625 86.515625 120.0625 C 79.628906 120.0625 79.453125 120.238281 79.453125 126.242188 Z M 79.453125 126.242188 "/>
</g>
</svg>
