<svg version="1.1" id="Layer_1" xmlns="http://www.w3.org/2000/svg" xmlns:xlink="http://www.w3.org/1999/xlink" x="0px" y="0px"
	 width="100%" viewBox="0 0 1024 1024" enable-background="new 0 0 1024 1024" xml:space="preserve">
<path fill="#FFFFFF" opacity="1.000000" stroke="none" 
	d="
M503.534241,797.870300 
	C469.312805,792.530396 446.881653,773.626770 435.609009,741.478638 
	C434.137299,737.281555 432.822540,732.902100 432.726227,728.372620 
	C432.663147,725.405762 431.428253,724.087158 428.486603,724.213196 
	C426.823608,724.284485 425.154419,724.203064 423.488007,724.203247 
	C370.327240,724.209167 317.166504,724.218018 264.005737,724.222412 
	C256.676086,724.223022 256.671295,724.213440 256.664612,716.770508 
	C256.659637,711.271118 256.801025,705.767944 256.642578,700.273193 
	C256.377014,691.065125 260.333374,684.241699 268.018860,679.452209 
	C279.942841,672.021301 291.247040,663.840271 300.620605,653.232971 
	C315.892487,635.951172 323.808319,615.392090 327.708618,592.990601 
	C331.520233,571.098755 332.160980,548.969788 332.622711,526.844360 
	C333.081543,504.858490 332.445374,482.862274 333.563202,460.874542 
	C335.437622,424.004181 348.304779,391.426788 371.502686,362.927429 
	C392.182892,337.521271 418.169769,319.378723 449.038940,308.479248 
	C454.427338,306.576660 456.190521,304.006165 455.805267,298.440155 
	C455.054474,287.593323 455.838318,276.795013 459.668182,266.452728 
	C469.276245,240.506699 493.124268,225.025299 519.085205,227.827759 
	C544.123413,230.530609 564.956055,251.337234 569.366455,277.731049 
	C570.476868,284.376221 570.168884,291.004700 570.287415,297.649963 
	C570.455933,307.101135 569.413452,305.387238 577.771545,308.585052 
	C623.801392,326.196136 657.936646,356.738678 678.413452,401.819336 
	C687.024353,420.776367 691.581848,440.782379 692.463318,461.702637 
	C693.453125,485.193848 692.779846,508.693787 693.439514,532.173096 
	C694.079224,554.945923 694.963379,577.724854 699.604431,600.178162 
	C706.544434,633.753479 724.876709,659.126160 753.985229,676.935669 
	C757.674683,679.192993 761.504517,681.282532 764.262085,684.770752 
	C767.570923,688.956299 769.439697,693.622070 769.364136,699.050110 
	C769.273682,705.548096 769.120667,712.058777 769.423523,718.543945 
	C769.629456,722.954468 768.012390,724.328308 763.676392,724.297485 
	C740.846741,724.135498 718.015381,724.215820 695.184570,724.211975 
	C663.854736,724.206726 632.524231,724.296509 601.195618,724.100464 
	C596.086243,724.068420 593.816528,725.070618 592.765747,730.804321 
	C585.899597,768.269165 558.247498,793.855774 520.438416,798.102722 
	C515.024231,798.710876 509.467712,798.052063 503.534241,797.870300 
M496.500000,692.049744 
	C570.413086,692.049744 644.326172,692.049744 718.370483,692.049744 
	C718.095520,689.498779 716.352356,688.861633 715.166870,687.828247 
	C696.021973,671.138855 682.286926,650.854736 674.158081,626.749084 
	C664.728577,598.786255 662.646240,569.768921 661.867920,540.612244 
	C661.196716,515.470032 661.103333,490.312286 660.763062,465.161285 
	C660.581360,451.730011 658.131409,438.682373 653.813721,426.008148 
	C635.532898,372.346497 586.091370,334.604034 526.160767,329.488220 
	C498.151031,327.097290 470.835999,331.373108 445.636353,344.400604 
	C394.441376,370.866913 366.194733,412.265259 365.214844,470.817932 
	C364.810638,494.970642 364.731476,519.130615 364.116943,543.277466 
	C363.608948,563.237488 362.086792,583.137878 358.257843,602.791931 
	C353.337341,628.049133 343.917664,651.274353 327.235809,671.180115 
	C321.076874,678.529358 313.974915,684.982849 306.252136,692.049927 
	C369.959869,692.049927 432.729950,692.049927 496.500000,692.049744 
M553.708984,745.206482 
	C556.992554,740.526001 559.318909,735.398315 560.786743,729.884155 
	C562.210938,724.533813 562.000610,724.218689 556.365845,724.215576 
	C527.404602,724.199585 498.443359,724.208252 469.482208,724.244263 
	C463.990936,724.251038 463.671753,724.653809 465.302032,730.084229 
	C470.946930,748.886658 483.290375,761.342468 502.385895,765.411743 
	C523.122070,769.830750 540.376404,762.842590 553.708984,745.206482 
M510.109833,259.603882 
	C508.337189,260.050110 506.494293,260.315399 504.803131,260.971588 
	C492.703888,265.666260 483.804352,284.005066 487.409729,296.496948 
	C487.984192,298.487244 489.224518,298.566315 490.834045,298.390839 
	C503.269623,297.035004 515.712463,296.922363 528.207031,297.659180 
	C539.114380,298.302399 539.128540,298.062347 538.658081,286.954285 
	C537.979187,270.925110 526.068481,259.117035 510.109833,259.603882 
z"/>
<path fill="#FFFFFF" opacity="1.000000" stroke="none" 
	d="
M446.448944,400.443848 
	C429.571136,415.081299 420.543762,433.065948 420.220673,455.250916 
	C420.103668,463.284576 414.271545,468.789948 406.493988,468.598267 
	C398.989258,468.413361 393.555328,462.876923 393.681030,454.899109 
	C394.138611,425.864777 405.090515,401.419281 426.782379,382.121155 
	C444.639709,366.234375 465.832672,358.303802 489.718414,357.808746 
	C498.507996,357.626526 504.243744,362.908508 504.337036,370.713440 
	C504.437592,379.130066 499.149719,384.044922 490.015137,384.369995 
	C473.884399,384.944061 459.362366,390.045380 446.448944,400.443848 
z"/>
</svg>