<svg width="32" height="32" viewBox="0 0 32 32" fill="none" xmlns="http://www.w3.org/2000/svg">
<circle cx="16" cy="16" r="16" fill="#FABB0E"/>
<g clip-path="url(#clip0_68_1917)">
<path d="M22.7195 10.3346C22.7469 10.1882 22.7541 10.0917 22.7844 10.0023C22.889 9.69018 23.1117 9.52584 23.4398 9.55323C23.7491 9.57918 23.9877 9.75938 23.9935 10.0722C24.0079 10.8398 23.9986 11.6096 23.9553 12.3758C23.9365 12.7031 23.6186 12.9121 23.2639 12.8573C22.54 12.7442 21.8183 12.6101 21.1017 12.458C20.7491 12.3838 20.5552 12.0407 20.6309 11.7192C20.7123 11.3747 21.0267 11.1757 21.3994 11.2334C21.5004 11.2485 21.602 11.2608 21.7967 11.2874C21.1911 10.6438 20.5573 10.1976 19.8378 9.88984C17.3324 8.81731 14.9445 9.05733 12.8183 10.7642C10.6799 12.4811 9.86806 14.789 10.4686 17.4581C11.0793 20.1711 12.8277 21.9327 15.5515 22.5346C18.3309 23.1487 20.6388 22.2347 22.4182 20.0097C22.5083 19.8972 22.5833 19.7733 22.6727 19.6601C22.9214 19.3437 23.2639 19.2709 23.5573 19.4676C23.8637 19.6731 23.9632 20.0738 23.7022 20.3816C23.1456 21.0382 22.6193 21.7533 21.9495 22.2765C17.2134 25.972 10.3677 23.419 9.15645 17.5331C8.2545 13.1485 11.354 8.72145 15.7621 8.09436C18.3526 7.72604 20.6078 8.43457 22.5364 10.1955C22.5789 10.2344 22.628 10.2654 22.7188 10.3338L22.7195 10.3346Z" fill="black" fill-opacity="0.81"/>
<path d="M17.4996 13.4152C17.4996 13.9551 17.4867 14.4957 17.5083 15.0349C17.5141 15.1805 17.5912 15.3563 17.695 15.458C17.9993 15.7549 18.1413 16.0937 18.1334 16.5182C18.1312 16.6516 18.1976 16.8174 18.2898 16.9147C18.7001 17.3522 19.1341 17.7674 19.5544 18.1955C19.8789 18.5256 19.9056 18.9127 19.6338 19.1801C19.3648 19.4439 18.9748 19.4122 18.6467 19.09C18.2185 18.6698 17.8053 18.233 17.3663 17.825C17.2394 17.7075 17.0505 17.6225 16.8782 17.5951C16.3901 17.5158 16.0123 17.3003 15.8313 16.8282C15.6525 16.3633 15.7477 15.943 16.0663 15.5538C16.168 15.4298 16.2336 15.2381 16.2358 15.0767C16.2502 13.9731 16.2408 12.8696 16.2459 11.7654C16.248 11.3199 16.4636 11.0677 16.8327 11.0489C17.2149 11.0294 17.4867 11.2796 17.4946 11.6882C17.5061 12.2642 17.4975 12.8401 17.4975 13.416H17.4989L17.4996 13.4152ZM16.5018 16.3532C16.5105 16.6256 16.6518 16.795 16.9149 16.808C17.1601 16.8202 17.3324 16.6775 17.354 16.4267C17.3771 16.1607 17.2365 15.9834 16.9676 15.9589C16.695 15.9344 16.5501 16.0966 16.5011 16.3532H16.5018Z" fill="black" fill-opacity="0.81"/>
</g>
<defs>
<clipPath id="clip0_68_1917">
<rect width="15" height="16" fill="white" transform="translate(9 8)"/>
</clipPath>
</defs>
</svg>
