<svg width="27" height="30" viewBox="0 0 27 30" fill="none" xmlns="http://www.w3.org/2000/svg">
<path d="M6.15712 4.75359C6.9852 5.82652 7.79927 6.88224 8.62608 7.95389C5.83735 9.74829 4.23277 12.2527 4.05888 15.5646C3.92511 18.1206 4.77613 20.3711 6.5151 22.2503C10.2396 26.2754 16.34 26.2148 19.9925 22.362C22.0271 20.2161 22.8997 17.6263 22.4685 14.6798C22.0411 11.7596 20.5034 9.5314 17.9612 7.94879C18.7988 6.86374 19.618 5.80292 20.4346 4.74466C24.8712 7.4557 27.6402 13.0685 26.2592 19.0041C24.7686 25.4111 19.2409 29.2959 13.3315 29.2959C6.682 29.2959 1.43002 24.608 0.254144 18.5601C-0.94021 12.4128 2.25047 7.11826 6.15712 4.75359Z" fill="#FF0000"/>
<path d="M15.282 8.14271C15.282 10.0022 15.2833 11.861 15.282 13.7204C15.2813 14.8501 14.4049 15.7049 13.2436 15.7126C12.1652 15.7196 11.2696 14.854 11.267 13.7606C11.2588 9.97856 11.2588 6.1965 11.267 2.41444C11.269 1.31918 12.1754 0.505226 13.3481 0.506502C14.3826 0.50714 15.2763 1.39062 15.2801 2.43804C15.2871 4.3396 15.282 6.24115 15.282 8.14271Z" fill="#FF0000"/>
</svg>
